<svg xmlns="http://www.w3.org/2000/svg" width="76.298" height="76.297" viewBox="0 0 76.298 76.297">
  <g id="sass" transform="translate(-765.351 -448.703)">
    <rect id="Retângulo_3" data-name="Retângulo 3" width="75" height="75" rx="11" transform="matrix(1, 0.017, -0.017, 1, 766.66, 448.703)"/>
    <path id="sass-brands" d="M23.585,53.8C23.561,53.867,23.538,53.917,23.585,53.8Zm19.464-9.062a8.217,8.217,0,0,0-4.531,1.406A15.389,15.389,0,0,1,37.5,43.014a11.112,11.112,0,0,1-.086-2.635,28.121,28.121,0,0,1,.594-2.833c-.008-.115-.109-.687-1.117-.7s-1.875.26-1.976.615a16.251,16.251,0,0,0-.414,1.989A55.676,55.676,0,0,1,31.448,47.3a9.808,9.808,0,0,1-.7-2.291,11.112,11.112,0,0,1-.086-2.635,28.121,28.121,0,0,1,.594-2.833c-.008-.115-.109-.687-1.116-.7s-1.875.26-1.977.615-.211,1.187-.414,1.989-2.648,8.051-3.288,9.937c-.328.958-.609,1.729-.813,2.25-.031.083-.055.135-.07.177.023-.052.039-.1.039-.083-.172.448-.273.7-.273.7v.01c-.133.333-.281.635-.352.635a5.72,5.72,0,0,1,.023-2.073c.367-2.521,1.234-6.437,1.227-6.572a1.01,1.01,0,0,0-.57-1.114.776.776,0,0,0-1.031.229c-.063,0-.109.208-.109.208s.789-4.416-1.515-4.416c-1.438,0-3.438,2.1-4.42,4.01-.617.448-1.953,1.417-3.359,2.448-.539.4-1.094.8-1.617,1.187-.039-.052-.07-.1-.109-.156-2.8-3.979-7.959-6.791-7.74-12.134.078-1.948.586-7.062,9.927-13.27,7.656-5.083,13.778-3.687,14.831-.583,1.516,4.427-3.273,12.666-11.224,13.853a5.072,5.072,0,0,1-5.022-1.7c-.414-.615-.477-.646-.633-.531-.258.187-.094.729,0,1.052a5.331,5.331,0,0,0,2.874,3.01c1.461.635,5.014.99,9.31-1.229,4.827-2.479,8.584-9.385,7.482-15.165-1.122-5.875-8.428-7.8-15.337-4.531a34,34,0,0,0-11.77,9C.411,31.338-.2,35.473.053,37.2c.89,6.135,7.232,10.135,9.77,13.093-.125.094-.242.177-.352.26C8.2,51.4,3.363,54.774,2.153,58.336c-1.367,4.041.227,6.937,1.273,7.333,3.265,1.208,6.608-.969,8.4-4.541a14.607,14.607,0,0,0,.75-10.364c-.008-.031-.023-.052-.031-.083.328-.26.664-.521,1-.781.648-.51,1.28-.979,1.835-1.385a20.966,20.966,0,0,0-.656,4.437c-.141,2.291.57,5.26,1.492,6.427a1.384,1.384,0,0,0,1.2.521c1.078,0,1.563-1.187,2.1-2.6.664-1.729,1.25-3.739,1.25-3.739s-.734,5.437,1.273,5.437c.734,0,1.468-1.26,1.8-1.906v.01s.016-.042.055-.125c.078-.156.117-.25.117-.25V56.69c.3-.677.945-2.229,1.921-4.791,1.266-3.312,2.476-7.447,2.476-7.447a26.939,26.939,0,0,0,.484,2.687,29.949,29.949,0,0,0,1.047,3.125c-.3.542-.477.854-.477.854a.037.037,0,0,0,.008.021c-.234.417-.5.865-.773,1.3a37.19,37.19,0,0,0-2.344,3.916,1.3,1.3,0,0,0,.219,1.427,1.5,1.5,0,0,0,1.226.26,4.352,4.352,0,0,0,1.836-.562,6.087,6.087,0,0,0,1.577-1.1,5.356,5.356,0,0,0,1.516-4.145,11,11,0,0,0-.57-2.937c.086-.167.18-.344.266-.521a62.307,62.307,0,0,0,2.741-6.314,26.938,26.938,0,0,0,.484,2.687,21.9,21.9,0,0,0,.89,2.677,11.742,11.742,0,0,0-2.663,4.593c-.578,2.219-.125,3.218.727,3.448a2.079,2.079,0,0,0,1.336-.365,5.845,5.845,0,0,0,1.687-1.156,5.465,5.465,0,0,0,1.859-4.125,9.964,9.964,0,0,0-.422-2.437,7.37,7.37,0,0,1,4.851-.75,5.538,5.538,0,0,1,5.038,5.812,3.917,3.917,0,0,1-1.383,2.6c-.3.25-.4.344-.375.531.039.271.18.26.438.2A4.333,4.333,0,0,0,50,52.147a6.982,6.982,0,0,0-6.953-7.406ZM9.518,59.815C8.082,61.908,6.066,62.7,5.2,62.033c-.93-.721-.563-3.8,1.21-6.033A25.048,25.048,0,0,1,9.8,52.626c.211-.167.516-.417.891-.719.063-.052.094-.073.094-.073.07-.062.148-.115.227-.177a10.36,10.36,0,0,1-1.492,8.156Zm10.5-9.52c-.5,1.635-1.554,5.8-2.195,5.583-.547-.187-.883-3.364-.109-6.489a16.241,16.241,0,0,1,1.711-4.177c.788-1.177,1.655-1.552,1.859-1.083C21.554,44.743,20.328,49.274,20.015,50.295Zm8.672,5.52c-.211.146-.406.24-.5.167-.07-.052.086-.25.086-.25s1.086-1.552,1.516-2.26c.25-.417.539-.906.851-1.448,0,.052.008.1.008.167a4.913,4.913,0,0,1-1.963,3.625Zm6.686-2.031c-.156-.146-.133-.635.391-2.156a8.3,8.3,0,0,1,1.484-2.552A4.913,4.913,0,0,1,37.4,50.2a3.6,3.6,0,0,1-2.023,3.583Z" transform="translate(778.645 445.996)" fill="#f9f9f9"/>
  </g>
</svg>
